{"sign": [{"time": 192, "loop": true, "skip": false, "repeat": false}, {"time": 496, "loop": false, "skip": false, "repeat": true}], "score": [{"max_duration": 8, "time": 0, "notes": [{"duration": 8, "note": 53, "channel": 1, "velocity": 127}, {"duration": 3, "note": 69, "velocity": 127, "channel": 0}]}, {"max_duration": 3, "time": 4, "notes": [{"duration": 3, "note": 69, "velocity": 127, "channel": 0}]}, {"max_duration": 8, "time": 8, "notes": [{"duration": 8, "note": 52, "channel": 1, "velocity": 127}, {"duration": 3, "note": 67, "velocity": 127, "channel": 0}]}, {"max_duration": 3, "time": 12, "notes": [{"duration": 3, "note": 67, "velocity": 127, "channel": 0}]}, {"max_duration": 8, "time": 16, "notes": [{"duration": 8, "note": 50, "channel": 1, "velocity": 127}, {"duration": 3, "note": 65, "velocity": 127, "channel": 0}]}, {"max_duration": 3, "time": 20, "notes": [{"duration": 3, "note": 65, "velocity": 127, "channel": 0}]}, {"max_duration": 8, "time": 24, "notes": [{"duration": 8, "note": 48, "channel": 1, "velocity": 127}, {"duration": 3, "note": 64, "velocity": 127, "channel": 0}]}, {"max_duration": 3, "time": 28, "notes": [{"duration": 3, "note": 64, "velocity": 127, "channel": 0}]}, {"max_duration": 8, "time": 32, "notes": [{"duration": 8, "note": 53, "channel": 1, "velocity": 127}, {"duration": 3, "note": 69, "velocity": 127, "channel": 0}]}, {"max_duration": 3, "time": 36, "notes": [{"duration": 3, "note": 69, "velocity": 127, "channel": 0}]}, {"max_duration": 8, "time": 40, "notes": [{"duration": 8, "note": 52, "channel": 1, "velocity": 127}, {"duration": 3, "note": 67, "velocity": 127, "channel": 0}]}, {"max_duration": 3, "time": 44, "notes": [{"duration": 3, "note": 72, "velocity": 127, "channel": 0}]}, {"max_duration": 4, "time": 48, "notes": [{"duration": 4, "note": 50, "channel": 1, "velocity": 127}, {"duration": 2, "note": 77, "velocity": 127, "channel": 0}]}, {"max_duration": 2, "time": 50, "notes": [{"duration": 2, "note": 76, "velocity": 127, "channel": 0}]}, {"max_duration": 4, "time": 52, "notes": [{"duration": 4, "note": 55, "channel": 1, "velocity": 127}, {"duration": 4, "note": 74, "velocity": 127, "channel": 0}]}, {"max_duration": 8, "time": 56, "notes": [{"duration": 8, "note": 48, "channel": 1, "velocity": 127}, {"duration": 8, "note": 72, "velocity": 127, "channel": 0}]}, {"max_duration": 8, "time": 64, "notes": [{"duration": 8, "note": 60, "channel": 1, "velocity": 127}, {"velocity": 127, "note": 76, "channel": 0, "duration": 3}]}, {"max_duration": 2, "time": 68, "notes": [{"velocity": 127, "note": 76, "channel": 0, "duration": 2}]}, {"max_duration": 2, "time": 70, "notes": [{"velocity": 127, "note": 76, "channel": 0, "duration": 2}]}, {"max_duration": 8, "time": 72, "notes": [{"duration": 8, "note": 55, "channel": 1, "velocity": 127}, {"velocity": 127, "note": 74, "channel": 0, "duration": 4}]}, {"max_duration": 4, "time": 76, "notes": [{"velocity": 127, "note": 79, "channel": 0, "duration": 4}]}, {"max_duration": 8, "time": 80, "notes": [{"duration": 8, "note": 56, "channel": 1, "velocity": 127}, {"velocity": 127, "note": 76, "channel": 0, "duration": 2}]}, {"max_duration": 2, "time": 82, "notes": [{"velocity": 127, "note": 77, "channel": 0, "duration": 2}]}, {"max_duration": 2, "time": 84, "notes": [{"velocity": 127, "note": 76, "channel": 0, "duration": 2}]}, {"max_duration": 2, "time": 86, "notes": [{"velocity": 127, "note": 74, "channel": 0, "duration": 2}]}, {"max_duration": 8, "time": 88, "notes": [{"duration": 8, "note": 57, "channel": 1, "velocity": 127}, {"velocity": 127, "note": 72, "channel": 0, "duration": 8}]}, {"max_duration": 8, "time": 96, "notes": [{"duration": 8, "note": 53, "channel": 1, "velocity": 127}, {"velocity": 127, "note": 69, "channel": 0, "duration": 2}]}, {"max_duration": 2, "time": 98, "notes": [{"velocity": 127, "note": 71, "channel": 0, "duration": 2}]}, {"max_duration": 2, "time": 100, "notes": [{"velocity": 127, "note": 72, "channel": 0, "duration": 2}]}, {"max_duration": 2, "time": 102, "notes": [{"velocity": 127, "note": 72, "channel": 0, "duration": 2}]}, {"max_duration": 8, "time": 104, "notes": [{"duration": 8, "note": 52, "channel": 1, "velocity": 127}, {"velocity": 127, "note": 67, "channel": 0, "duration": 2}]}, {"max_duration": 2, "time": 106, "notes": [{"velocity": 127, "note": 67, "channel": 0, "duration": 2}]}, {"max_duration": 2, "time": 108, "notes": [{"velocity": 127, "note": 72, "channel": 0, "duration": 2}]}, {"max_duration": 2, "time": 110, "notes": [{"velocity": 127, "note": 72, "channel": 0, "duration": 2}]}, {"max_duration": 8, "time": 112, "notes": [{"duration": 8, "note": 50, "channel": 1, "velocity": 127}]}, {"max_duration": 2, "time": 114, "notes": [{"velocity": 127, "note": 72, "channel": 0, "duration": 2}]}, {"max_duration": 2, "time": 116, "notes": [{"velocity": 127, "note": 71, "channel": 0, "duration": 2}]}, {"max_duration": 2, "time": 118, "notes": [{"velocity": 127, "note": 72, "channel": 0, "duration": 2}]}, {"max_duration": 8, "time": 120, "notes": [{"duration": 8, "note": 55, "channel": 1, "velocity": 127}, {"velocity": 127, "note": 74, "channel": 0, "duration": 8}]}, {"max_duration": 8, "time": 128, "notes": [{"duration": 8, "note": 60, "channel": 1, "velocity": 127}, {"velocity": 127, "note": 76, "channel": 0, "duration": 3}]}, {"max_duration": 2, "time": 132, "notes": [{"velocity": 127, "note": 76, "channel": 0, "duration": 2}]}, {"max_duration": 2, "time": 134, "notes": [{"velocity": 127, "note": 76, "channel": 0, "duration": 2}]}, {"max_duration": 8, "time": 136, "notes": [{"duration": 8, "note": 55, "channel": 1, "velocity": 127}, {"velocity": 127, "note": 74, "channel": 0, "duration": 4}]}, {"max_duration": 4, "time": 140, "notes": [{"velocity": 127, "note": 79, "channel": 0, "duration": 4}]}, {"max_duration": 8, "time": 144, "notes": [{"duration": 8, "note": 56, "channel": 1, "velocity": 127}, {"velocity": 127, "note": 76, "channel": 0, "duration": 2}]}, {"max_duration": 2, "time": 146, "notes": [{"velocity": 127, "note": 77, "channel": 0, "duration": 2}]}, {"max_duration": 2, "time": 148, "notes": [{"velocity": 127, "note": 76, "channel": 0, "duration": 2}]}, {"max_duration": 2, "time": 150, "notes": [{"velocity": 127, "note": 74, "channel": 0, "duration": 2}]}, {"max_duration": 8, "time": 152, "notes": [{"duration": 8, "note": 57, "channel": 1, "velocity": 127}, {"velocity": 127, "note": 72, "channel": 0, "duration": 8}]}, {"max_duration": 8, "time": 160, "notes": [{"duration": 8, "note": 53, "channel": 1, "velocity": 127}, {"velocity": 127, "note": 69, "channel": 0, "duration": 2}]}, {"max_duration": 2, "time": 162, "notes": [{"velocity": 127, "note": 71, "channel": 0, "duration": 2}]}, {"max_duration": 2, "time": 164, "notes": [{"velocity": 127, "note": 72, "channel": 0, "duration": 2}]}, {"max_duration": 2, "time": 166, "notes": [{"velocity": 127, "note": 74, "channel": 0, "duration": 2}]}, {"max_duration": 8, "time": 168, "notes": [{"duration": 8, "note": 52, "channel": 1, "velocity": 127}, {"velocity": 127, "note": 76, "channel": 0, "duration": 2}]}, {"max_duration": 2, "time": 170, "notes": [{"velocity": 127, "note": 74, "channel": 0, "duration": 2}]}, {"max_duration": 2, "time": 172, "notes": [{"velocity": 127, "note": 72, "channel": 0, "duration": 2}]}, {"max_duration": 2, "time": 174, "notes": [{"velocity": 127, "note": 67, "channel": 0, "duration": 2}]}, {"max_duration": 4, "time": 176, "notes": [{"duration": 4, "note": 50, "channel": 1, "velocity": 127}, {"velocity": 127, "note": 69, "channel": 0, "duration": 2}]}, {"max_duration": 2, "time": 178, "notes": [{"velocity": 127, "note": 74, "channel": 0, "duration": 2}]}, {"max_duration": 4, "time": 180, "notes": [{"duration": 4, "note": 55, "channel": 1, "velocity": 127}, {"velocity": 127, "note": 71, "channel": 0, "duration": 2}]}, {"max_duration": 2, "time": 182, "notes": [{"velocity": 127, "note": 71, "channel": 0, "duration": 2}]}, {"max_duration": 8, "time": 184, "notes": [{"duration": 8, "note": 48, "channel": 1, "velocity": 127}, {"velocity": 127, "note": 72, "channel": 0, "duration": 8}]}, {"max_duration": 8, "time": 192, "notes": [{"duration": 8, "note": 47, "channel": 1, "velocity": 127}, {"velocity": 127, "note": 76, "channel": 0, "duration": 2}]}, {"max_duration": 2, "time": 194, "notes": [{"velocity": 127, "note": 77, "channel": 0, "duration": 2}]}, {"max_duration": 2, "time": 196, "notes": [{"velocity": 127, "note": 74, "channel": 0, "duration": 2}]}, {"max_duration": 2, "time": 198, "notes": [{"velocity": 127, "note": 76, "channel": 0, "duration": 2}]}, {"max_duration": 8, "time": 200, "notes": [{"duration": 8, "note": 52, "channel": 1, "velocity": 127}, {"velocity": 127, "note": 71, "channel": 0, "duration": 8}]}, {"max_duration": 8, "time": 208, "notes": [{"duration": 8, "note": 53, "channel": 1, "velocity": 127}, {"velocity": 127, "note": 71, "channel": 0, "duration": 2}]}, {"max_duration": 2, "time": 210, "notes": [{"velocity": 127, "note": 72, "channel": 0, "duration": 2}]}, {"max_duration": 2, "time": 212, "notes": [{"velocity": 127, "note": 74, "channel": 0, "duration": 2}]}, {"max_duration": 2, "time": 214, "notes": [{"velocity": 127, "note": 71, "channel": 0, "duration": 2}]}, {"max_duration": 8, "time": 216, "notes": [{"duration": 8, "note": 56, "channel": 1, "velocity": 127}, {"velocity": 127, "note": 76, "channel": 0, "duration": 4}]}, {"max_duration": 8, "time": 224, "notes": [{"duration": 8, "note": 58, "channel": 1, "velocity": 127}, {"velocity": 127, "note": 76, "channel": 0, "duration": 6}]}, {"max_duration": 2, "time": 230, "notes": [{"velocity": 127, "note": 77, "channel": 0, "duration": 2}]}, {"max_duration": 8, "time": 232, "notes": [{"duration": 8, "note": 57, "channel": 1, "velocity": 127}, {"velocity": 127, "note": 79, "channel": 0, "duration": 4}]}, {"max_duration": 2, "time": 236, "notes": [{"velocity": 127, "note": 77, "channel": 0, "duration": 2}]}, {"max_duration": 2, "time": 238, "notes": [{"velocity": 127, "note": 76, "channel": 0, "duration": 2}]}, {"max_duration": 16, "time": 240, "notes": [{"duration": 8, "note": 62, "channel": 1, "velocity": 127}, {"velocity": 127, "note": 77, "channel": 0, "duration": 16}]}, {"max_duration": 8, "time": 248, "notes": [{"duration": 8, "note": 60, "channel": 1, "velocity": 127}]}, {"max_duration": 8, "time": 256, "notes": [{"duration": 8, "note": 59, "channel": 1, "velocity": 127}, {"velocity": 127, "note": 74, "channel": 0, "duration": 6}]}, {"max_duration": 2, "time": 262, "notes": [{"velocity": 127, "note": 67, "channel": 0, "duration": 2}]}, {"max_duration": 8, "time": 264, "notes": [{"duration": 8, "note": 55, "channel": 1, "velocity": 127}, {"velocity": 127, "note": 77, "channel": 0, "duration": 4}]}, {"max_duration": 2, "time": 268, "notes": [{"velocity": 127, "note": 76, "channel": 0, "duration": 2}]}, {"max_duration": 2, "time": 270, "notes": [{"velocity": 127, "note": 74, "channel": 0, "duration": 2}]}, {"max_duration": 8, "time": 272, "notes": [{"duration": 8, "note": 60, "channel": 1, "velocity": 127}, {"velocity": 127, "note": 76, "channel": 0, "duration": 8}]}, {"max_duration": 8, "time": 280, "notes": [{"duration": 8, "note": 55, "channel": 1, "velocity": 127}]}, {"max_duration": 4, "time": 284, "notes": [{"velocity": 127, "note": 79, "channel": 0, "duration": 4}]}, {"max_duration": 8, "time": 288, "notes": [{"duration": 8, "note": 58, "channel": 1, "velocity": 127}, {"velocity": 127, "note": 79, "channel": 0, "duration": 6}]}, {"max_duration": 2, "time": 294, "notes": [{"velocity": 127, "note": 76, "channel": 0, "duration": 2}]}, {"max_duration": 8, "time": 296, "notes": [{"duration": 8, "note": 57, "channel": 1, "velocity": 127}, {"velocity": 127, "note": 79, "channel": 0, "duration": 2}]}, {"max_duration": 2, "time": 298, "notes": [{"velocity": 127, "note": 76, "channel": 0, "duration": 2}]}, {"max_duration": 2, "time": 300, "notes": [{"velocity": 127, "note": 79, "channel": 0, "duration": 2}]}, {"max_duration": 2, "time": 302, "notes": [{"velocity": 127, "note": 76, "channel": 0, "duration": 2}]}, {"max_duration": 16, "time": 304, "notes": [{"duration": 8, "note": 62, "channel": 1, "velocity": 127}, {"velocity": 127, "note": 77, "channel": 0, "duration": 16}]}, {"max_duration": 8, "time": 312, "notes": [{"duration": 8, "note": 62, "channel": 1, "velocity": 127}]}, {"max_duration": 16, "time": 320, "notes": [{"duration": 16, "note": 55, "channel": 1, "velocity": 127}, {"velocity": 127, "note": 79, "channel": 0, "duration": 2}]}, {"max_duration": 2, "time": 322, "notes": [{"velocity": 127, "note": 76, "channel": 0, "duration": 2}]}, {"max_duration": 2, "time": 324, "notes": [{"velocity": 127, "note": 76, "channel": 0, "duration": 2}]}, {"max_duration": 2, "time": 326, "notes": [{"velocity": 127, "note": 74, "channel": 0, "duration": 2}]}, {"max_duration": 8, "time": 328, "notes": [{"velocity": 127, "note": 74, "channel": 0, "duration": 8}]}, {"max_duration": 28, "time": 336, "notes": [{"duration": 28, "note": 55, "channel": 1, "velocity": 127}, {"velocity": 127, "note": 76, "channel": 0, "duration": 2}]}, {"max_duration": 2, "time": 338, "notes": [{"velocity": 127, "note": 74, "channel": 0, "duration": 2}]}, {"max_duration": 2, "time": 340, "notes": [{"velocity": 127, "note": 74, "channel": 0, "duration": 2}]}, {"max_duration": 2, "time": 342, "notes": [{"velocity": 127, "note": 67, "channel": 0, "duration": 2}]}, {"max_duration": 2, "time": 344, "notes": [{"velocity": 127, "note": 79, "channel": 0, "duration": 2}]}, {"max_duration": 2, "time": 346, "notes": [{"velocity": 127, "note": 76, "channel": 0, "duration": 2}]}, {"max_duration": 2, "time": 348, "notes": [{"velocity": 127, "note": 74, "channel": 0, "duration": 2}]}, {"max_duration": 18, "time": 350, "notes": [{"velocity": 127, "note": 76, "channel": 0, "duration": 18}]}, {"max_duration": 4, "time": 364, "notes": [{"duration": 4, "note": 55, "channel": 1, "velocity": 127}]}, {"max_duration": 8, "time": 368, "notes": [{"duration": 8, "note": 60, "channel": 1, "velocity": 127}, {"velocity": 127, "note": 76, "channel": 0, "duration": 4}]}, {"max_duration": 2, "time": 372, "notes": [{"velocity": 127, "note": 76, "channel": 0, "duration": 2}]}, {"max_duration": 2, "time": 374, "notes": [{"velocity": 127, "note": 76, "channel": 0, "duration": 2}]}, {"max_duration": 8, "time": 376, "notes": [{"duration": 8, "note": 55, "channel": 1, "velocity": 127}, {"velocity": 127, "note": 74, "channel": 0, "duration": 4}]}, {"max_duration": 4, "time": 380, "notes": [{"velocity": 127, "note": 79, "channel": 0, "duration": 4}]}, {"max_duration": 8, "time": 384, "notes": [{"duration": 8, "note": 56, "channel": 1, "velocity": 127}, {"velocity": 127, "note": 76, "channel": 0, "duration": 2}]}, {"max_duration": 2, "time": 386, "notes": [{"velocity": 127, "note": 77, "channel": 0, "duration": 2}]}, {"max_duration": 2, "time": 388, "notes": [{"velocity": 127, "note": 76, "channel": 0, "duration": 2}]}, {"max_duration": 2, "time": 390, "notes": [{"velocity": 127, "note": 74, "channel": 0, "duration": 2}]}, {"max_duration": 8, "time": 392, "notes": [{"duration": 8, "note": 57, "channel": 1, "velocity": 127}, {"velocity": 127, "note": 72, "channel": 0, "duration": 8}]}, {"max_duration": 8, "time": 400, "notes": [{"duration": 8, "note": 53, "channel": 1, "velocity": 127}, {"velocity": 127, "note": 69, "channel": 0, "duration": 2}]}, {"max_duration": 2, "time": 402, "notes": [{"velocity": 127, "note": 71, "channel": 0, "duration": 2}]}, {"max_duration": 2, "time": 404, "notes": [{"velocity": 127, "note": 72, "channel": 0, "duration": 2}]}, {"max_duration": 2, "time": 406, "notes": [{"velocity": 127, "note": 72, "channel": 0, "duration": 2}]}, {"max_duration": 8, "time": 408, "notes": [{"duration": 8, "note": 52, "channel": 1, "velocity": 127}, {"velocity": 127, "note": 67, "channel": 0, "duration": 2}]}, {"max_duration": 2, "time": 410, "notes": [{"velocity": 127, "note": 67, "channel": 0, "duration": 2}]}, {"max_duration": 2, "time": 412, "notes": [{"velocity": 127, "note": 72, "channel": 0, "duration": 2}]}, {"max_duration": 2, "time": 414, "notes": [{"velocity": 127, "note": 72, "channel": 0, "duration": 2}]}, {"max_duration": 8, "time": 416, "notes": [{"duration": 8, "note": 50, "channel": 1, "velocity": 127}]}, {"max_duration": 2, "time": 418, "notes": [{"velocity": 127, "note": 72, "channel": 0, "duration": 2}]}, {"max_duration": 2, "time": 420, "notes": [{"velocity": 127, "note": 71, "channel": 0, "duration": 2}]}, {"max_duration": 2, "time": 422, "notes": [{"velocity": 127, "note": 72, "channel": 0, "duration": 2}]}, {"max_duration": 8, "time": 424, "notes": [{"duration": 8, "note": 55, "channel": 1, "velocity": 127}, {"velocity": 127, "note": 74, "channel": 0, "duration": 8}]}, {"max_duration": 8, "time": 432, "notes": [{"duration": 8, "note": 60, "channel": 1, "velocity": 127}, {"velocity": 127, "note": 76, "channel": 0, "duration": 4}]}, {"max_duration": 2, "time": 436, "notes": [{"velocity": 127, "note": 76, "channel": 0, "duration": 2}]}, {"max_duration": 2, "time": 438, "notes": [{"velocity": 127, "note": 76, "channel": 0, "duration": 2}]}, {"max_duration": 8, "time": 440, "notes": [{"duration": 8, "note": 55, "channel": 1, "velocity": 127}, {"velocity": 127, "note": 74, "channel": 0, "duration": 4}]}, {"max_duration": 4, "time": 444, "notes": [{"velocity": 127, "note": 79, "channel": 0, "duration": 4}]}, {"max_duration": 8, "time": 448, "notes": [{"duration": 8, "note": 56, "channel": 1, "velocity": 127}, {"velocity": 127, "note": 76, "channel": 0, "duration": 2}]}, {"max_duration": 2, "time": 450, "notes": [{"velocity": 127, "note": 77, "channel": 0, "duration": 2}]}, {"max_duration": 2, "time": 452, "notes": [{"velocity": 127, "note": 76, "channel": 0, "duration": 2}]}, {"max_duration": 2, "time": 454, "notes": [{"velocity": 127, "note": 74, "channel": 0, "duration": 2}]}, {"max_duration": 8, "time": 456, "notes": [{"duration": 8, "note": 57, "channel": 1, "velocity": 127}, {"velocity": 127, "note": 72, "channel": 0, "duration": 8}]}, {"max_duration": 8, "time": 464, "notes": [{"duration": 8, "note": 53, "channel": 1, "velocity": 127}, {"velocity": 127, "note": 69, "channel": 0, "duration": 2}]}, {"max_duration": 2, "time": 466, "notes": [{"velocity": 127, "note": 71, "channel": 0, "duration": 2}]}, {"max_duration": 2, "time": 468, "notes": [{"velocity": 127, "note": 72, "channel": 0, "duration": 2}]}, {"max_duration": 2, "time": 470, "notes": [{"velocity": 127, "note": 74, "channel": 0, "duration": 2}]}, {"max_duration": 8, "time": 472, "notes": [{"duration": 8, "note": 52, "channel": 1, "velocity": 127}, {"velocity": 127, "note": 76, "channel": 0, "duration": 2}]}, {"max_duration": 2, "time": 474, "notes": [{"velocity": 127, "note": 74, "channel": 0, "duration": 2}]}, {"max_duration": 2, "time": 476, "notes": [{"velocity": 127, "note": 72, "channel": 0, "duration": 2}]}, {"max_duration": 2, "time": 478, "notes": [{"velocity": 127, "note": 67, "channel": 0, "duration": 2}]}, {"max_duration": 4, "time": 480, "notes": [{"duration": 4, "note": 50, "channel": 1, "velocity": 127}, {"velocity": 127, "note": 69, "channel": 0, "duration": 2}]}, {"max_duration": 2, "time": 482, "notes": [{"velocity": 127, "note": 74, "channel": 0, "duration": 2}]}, {"max_duration": 4, "time": 484, "notes": [{"duration": 4, "note": 55, "channel": 1, "velocity": 127}, {"velocity": 127, "note": 71, "channel": 0, "duration": 2}]}, {"max_duration": 2, "time": 486, "notes": [{"velocity": 127, "note": 71, "channel": 0, "duration": 2}]}, {"max_duration": 8, "time": 488, "notes": [{"duration": 8, "note": 48, "channel": 1, "velocity": 127}, {"velocity": 127, "note": 72, "channel": 0, "duration": 8}]}, {"max_duration": 8, "time": 496, "notes": [{"duration": 8, "note": 53, "channel": 1, "velocity": 127}, {"velocity": 127, "note": 69, "channel": 0, "duration": 4}]}, {"max_duration": 4, "time": 500, "notes": [{"velocity": 127, "note": 69, "channel": 0, "duration": 4}]}, {"max_duration": 8, "time": 504, "notes": [{"duration": 8, "note": 52, "channel": 1, "velocity": 127}, {"velocity": 127, "note": 67, "channel": 0, "duration": 4}]}, {"max_duration": 4, "time": 508, "notes": [{"velocity": 127, "note": 67, "channel": 0, "duration": 4}]}, {"max_duration": 8, "time": 512, "notes": [{"duration": 8, "note": 50, "channel": 1, "velocity": 127}, {"velocity": 127, "note": 65, "channel": 0, "duration": 4}]}, {"max_duration": 4, "time": 516, "notes": [{"velocity": 127, "note": 65, "channel": 0, "duration": 4}]}, {"max_duration": 8, "time": 520, "notes": [{"duration": 8, "note": 48, "channel": 1, "velocity": 127}, {"velocity": 127, "note": 64, "channel": 0, "duration": 4}]}, {"max_duration": 4, "time": 524, "notes": [{"velocity": 127, "note": 64, "channel": 0, "duration": 4}]}, {"max_duration": 8, "time": 528, "notes": [{"duration": 8, "note": 53, "channel": 1, "velocity": 127}, {"velocity": 127, "note": 69, "channel": 0, "duration": 4}]}, {"max_duration": 4, "time": 532, "notes": [{"velocity": 127, "note": 69, "channel": 0, "duration": 4}]}, {"max_duration": 8, "time": 536, "notes": [{"duration": 8, "note": 52, "channel": 1, "velocity": 127}, {"velocity": 127, "note": 67, "channel": 0, "duration": 4}]}, {"max_duration": 4, "time": 540, "notes": [{"velocity": 127, "note": 72, "channel": 0, "duration": 4}]}, {"max_duration": 4, "time": 544, "notes": [{"duration": 4, "note": 50, "channel": 1, "velocity": 127}, {"velocity": 127, "note": 77, "channel": 0, "duration": 4}]}, {"max_duration": 4, "time": 548, "notes": [{"duration": 4, "note": 55, "channel": 1, "velocity": 127}, {"velocity": 127, "note": 76, "channel": 0, "duration": 2}]}, {"max_duration": 2, "time": 550, "notes": [{"velocity": 127, "note": 74, "channel": 0, "duration": 2}]}, {"max_duration": 8, "time": 552, "notes": [{"duration": 8, "note": 48, "channel": 1, "velocity": 127}, {"velocity": 127, "note": 72, "channel": 0, "duration": 8}]}], "channel": [{"program": 0, "gmbank": 0, "volume": 100}, {"program": 1, "gmbank": 0, "volume": 100}, {"program": 2, "gmbank": 0, "volume": 100}, {"program": 3, "gmbank": 0, "volume": 100}, {"program": 4, "gmbank": 0, "volume": 100}, {"program": 5, "gmbank": 0, "volume": 100}, {"program": 6, "gmbank": 0, "volume": 100}, {"program": 7, "gmbank": 0, "volume": 100}, {"program": 8, "gmbank": 0, "volume": 100}, {"program": 9, "gmbank": 0, "volume": 100}, {"program": 10, "gmbank": 0, "volume": 100}, {"program": 11, "gmbank": 0, "volume": 100}, {"program": 12, "gmbank": 0, "volume": 100}, {"program": 13, "gmbank": 0, "volume": 100}, {"program": 14, "gmbank": 0, "volume": 100}, {"program": 15, "gmbank": 0, "volume": 100}], "control": {"disp_time": [528, 565], "time_per_bar": 16, "time_cursor": 552, "disp_key": [[56, 73], [47, 64]], "program": [0, 1, 2, 3, 4, 5, 6, 7, 8, 9, 10, 11, 12, 13, 14, 15], "tempo": 85, "mini_note": 4, "key_cursor": [59, 47], "gmbank": [0, 0, 0, 0, 0, 0, 0, 0, 0, 0, 0, 0, 0, 0, 0, 0]}}