{"sign": [{"time": 0, "loop": true, "skip": false, "repeat": false}, {"time": 16, "loop": false, "skip": true, "repeat": false}, {"time": 24, "loop": false, "skip": false, "repeat": true}], "score": [{"max_duration": 4, "time": 0, "notes": [{"velocity": 127, "note": 57, "channel": 1, "duration": 4}, {"velocity": 127, "note": 60, "channel": 1, "duration": 4}, {"velocity": 127, "note": 64, "channel": 1, "duration": 4}]}, {"max_duration": 4, "time": 4, "notes": [{"velocity": 127, "note": 57, "channel": 1, "duration": 4}, {"velocity": 127, "note": 60, "channel": 1, "duration": 4}, {"velocity": 127, "note": 64, "channel": 1, "duration": 4}]}, {"max_duration": 4, "time": 8, "notes": [{"velocity": 127, "note": 57, "channel": 1, "duration": 4}, {"velocity": 127, "note": 60, "channel": 1, "duration": 4}, {"velocity": 127, "note": 64, "channel": 1, "duration": 4}]}, {"max_duration": 4, "time": 12, "notes": [{"velocity": 127, "note": 57, "channel": 1, "duration": 4}, {"velocity": 127, "note": 60, "channel": 1, "duration": 4}, {"velocity": 127, "note": 64, "channel": 1, "duration": 4}]}, {"max_duration": 4, "time": 16, "notes": [{"velocity": 127, "note": 57, "channel": 1, "duration": 4}, {"velocity": 127, "note": 60, "channel": 1, "duration": 4}, {"velocity": 127, "note": 64, "channel": 1, "duration": 4}, {"velocity": 127, "note": 69, "channel": 0, "duration": 1}]}, {"max_duration": 1, "time": 17, "notes": [{"velocity": 127, "note": 71, "channel": 0, "duration": 1}]}, {"max_duration": 1, "time": 18, "notes": [{"velocity": 127, "note": 72, "channel": 0, "duration": 1}]}, {"max_duration": 1, "time": 19, "notes": [{"velocity": 127, "note": 71, "channel": 0, "duration": 1}]}, {"max_duration": 4, "time": 20, "notes": [{"velocity": 127, "note": 57, "channel": 1, "duration": 4}, {"velocity": 127, "note": 60, "channel": 1, "duration": 4}, {"velocity": 127, "note": 64, "channel": 1, "duration": 4}, {"velocity": 127, "note": 69, "channel": 0, "duration": 2}]}, {"max_duration": 4, "time": 24, "notes": [{"duration": 4, "note": 57, "channel": 1, "velocity": 127}, {"duration": 4, "note": 60, "channel": 1, "velocity": 127}, {"duration": 4, "note": 64, "channel": 1, "velocity": 127}, {"duration": 1, "note": 69, "channel": 0, "velocity": 127}]}, {"max_duration": 1, "time": 25, "notes": [{"duration": 1, "note": 71, "channel": 0, "velocity": 127}]}, {"max_duration": 1, "time": 26, "notes": [{"duration": 1, "note": 72, "channel": 0, "velocity": 127}]}, {"max_duration": 1, "time": 27, "notes": [{"duration": 1, "note": 74, "channel": 0, "velocity": 127}]}, {"max_duration": 4, "time": 28, "notes": [{"duration": 4, "note": 57, "channel": 1, "velocity": 127}, {"duration": 4, "note": 60, "channel": 1, "velocity": 127}, {"duration": 4, "note": 64, "channel": 1, "velocity": 127}, {"duration": 2, "note": 76, "channel": 0, "velocity": 127}]}, {"max_duration": 4, "time": 32, "notes": [{"duration": 4, "note": 57, "channel": 1, "velocity": 47}, {"duration": 4, "note": 62, "channel": 1, "velocity": 72}, {"duration": 4, "note": 65, "channel": 1, "velocity": 68}, {"duration": 1, "note": 74, "channel": 0, "velocity": 69}]}, {"max_duration": 1, "time": 33, "notes": [{"duration": 1, "note": 76, "channel": 0, "velocity": 93}]}, {"max_duration": 1, "time": 34, "notes": [{"duration": 1, "note": 77, "channel": 0, "velocity": 108}]}, {"max_duration": 1, "time": 35, "notes": [{"duration": 1, "note": 79, "channel": 0, "velocity": 108}]}, {"max_duration": 4, "time": 36, "notes": [{"duration": 4, "note": 57, "channel": 1, "velocity": 113}, {"duration": 4, "note": 62, "channel": 1, "velocity": 96}, {"duration": 4, "note": 65, "channel": 1, "velocity": 96}, {"duration": 2, "note": 81, "channel": 0, "velocity": 121}]}, {"max_duration": 4, "time": 40, "notes": [{"duration": 4, "note": 57, "channel": 1, "velocity": 127}, {"duration": 4, "note": 60, "channel": 1, "velocity": 127}, {"duration": 4, "note": 64, "channel": 1, "velocity": 127}, {"duration": 1, "note": 81, "channel": 0, "velocity": 127}]}, {"max_duration": 1, "time": 41, "notes": [{"duration": 1, "note": 83, "channel": 0, "velocity": 127}]}, {"max_duration": 1, "time": 42, "notes": [{"duration": 1, "note": 84, "channel": 0, "velocity": 127}]}, {"max_duration": 1, "time": 43, "notes": [{"duration": 1, "note": 86, "channel": 0, "velocity": 127}]}, {"max_duration": 4, "time": 44, "notes": [{"duration": 4, "note": 57, "channel": 1, "velocity": 127}, {"duration": 4, "note": 60, "channel": 1, "velocity": 127}, {"duration": 4, "note": 64, "channel": 1, "velocity": 127}, {"duration": 2, "note": 88, "channel": 0, "velocity": 127}]}, {"max_duration": 4, "time": 48, "notes": [{"duration": 4, "note": 55, "channel": 1, "velocity": 127}, {"duration": 4, "note": 60, "channel": 1, "velocity": 127}, {"duration": 4, "note": 64, "channel": 1, "velocity": 127}]}, {"max_duration": 2, "time": 50, "notes": [{"duration": 2, "note": 76, "channel": 0, "velocity": 127}]}, {"max_duration": 4, "time": 52, "notes": [{"duration": 4, "note": 55, "channel": 1, "velocity": 127}, {"duration": 4, "note": 60, "channel": 1, "velocity": 127}, {"duration": 4, "note": 64, "channel": 1, "velocity": 127}, {"duration": 2, "note": 76, "channel": 0, "velocity": 127}]}, {"max_duration": 2, "time": 54, "notes": [{"duration": 2, "note": 77, "channel": 0, "velocity": 127}]}, {"max_duration": 4, "time": 56, "notes": [{"duration": 4, "note": 55, "channel": 1, "velocity": 127}, {"duration": 4, "note": 59, "channel": 1, "velocity": 127}, {"duration": 4, "note": 65, "channel": 1, "velocity": 127}, {"duration": 2, "note": 72, "channel": 0, "velocity": 127}]}, {"max_duration": 4, "time": 60, "notes": [{"duration": 4, "note": 55, "channel": 1, "velocity": 127}, {"duration": 4, "note": 59, "channel": 1, "velocity": 127}, {"duration": 4, "note": 65, "channel": 1, "velocity": 127}, {"duration": 4, "note": 74, "channel": 0, "velocity": 127}]}, {"max_duration": 4, "time": 64, "notes": [{"duration": 4, "note": 55, "channel": 1, "velocity": 127}, {"duration": 4, "note": 59, "channel": 1, "velocity": 127}, {"duration": 4, "note": 65, "channel": 1, "velocity": 127}, {"duration": 2, "note": 74, "channel": 0, "velocity": 127}]}, {"max_duration": 2, "time": 66, "notes": [{"duration": 2, "note": 79, "channel": 0, "velocity": 127}]}, {"max_duration": 4, "time": 68, "notes": [{"duration": 4, "note": 55, "channel": 1, "velocity": 127}, {"duration": 4, "note": 59, "channel": 1, "velocity": 127}, {"duration": 4, "note": 65, "channel": 1, "velocity": 127}, {"duration": 2, "note": 74, "channel": 0, "velocity": 127}]}, {"max_duration": 2, "time": 70, "notes": [{"duration": 2, "note": 76, "channel": 0, "velocity": 127}]}, {"max_duration": 2, "time": 72, "notes": [{"duration": 2, "note": 60, "channel": 1, "velocity": 127}, {"duration": 2, "note": 64, "channel": 1, "velocity": 127}, {"duration": 2, "note": 72, "channel": 0, "velocity": 127}]}, {"max_duration": 4, "time": 76, "notes": [{"duration": 4, "note": 64, "channel": 1, "velocity": 127}, {"duration": 4, "note": 76, "channel": 0, "velocity": 127}]}], "channel": [{"program": 0, "gmbank": 0, "volume": 100}, {"program": 1, "gmbank": 0, "volume": 50}, {"program": 2, "gmbank": 0, "volume": 100}, {"program": 3, "gmbank": 0, "volume": 100}, {"program": 4, "gmbank": 0, "volume": 100}, {"program": 5, "gmbank": 0, "volume": 100}, {"program": 6, "gmbank": 0, "volume": 100}, {"program": 7, "gmbank": 0, "volume": 100}, {"program": 8, "gmbank": 0, "volume": 100}, {"program": 9, "gmbank": 0, "volume": 100}, {"program": 10, "gmbank": 0, "volume": 100}, {"program": 11, "gmbank": 0, "volume": 100}, {"program": 12, "gmbank": 0, "volume": 100}, {"program": 13, "gmbank": 0, "volume": 100}, {"program": 14, "gmbank": 0, "volume": 100}, {"program": 15, "gmbank": 0, "volume": 100}], "control": {"disp_time": [24, 39], "time_per_bar": 8, "time_cursor": 36, "disp_key": [[70, 87], [55, 72]], "program": [6, 1, 2, 3, 4, 5, 6, 7, 8, 9, 10, 11, 12, 13, 14, 15], "tempo": 90, "mini_note": 4, "key_cursor": [81, 57], "gmbank": [0, 0, 0, 0, 0, 0, 0, 0, 0, 0, 0, 0, 0, 0, 0, 0]}}