{"sign": [{"time": 0, "loop": true, "skip": false, "repeat": false}, {"time": 16, "loop": false, "skip": true, "repeat": false}, {"time": 24, "loop": false, "skip": false, "repeat": true}], "score": [{"max_duration": 4, "time": 0, "notes": [{"duration": 4, "note": 57, "channel": 1, "velocity": 127}, {"duration": 4, "note": 60, "channel": 1, "velocity": 127}, {"duration": 4, "note": 64, "channel": 1, "velocity": 127}]}, {"max_duration": 4, "time": 4, "notes": [{"duration": 4, "note": 57, "channel": 1, "velocity": 127}, {"duration": 4, "note": 60, "channel": 1, "velocity": 127}, {"duration": 4, "note": 64, "channel": 1, "velocity": 127}]}, {"max_duration": 4, "time": 8, "notes": [{"duration": 4, "note": 57, "channel": 1, "velocity": 127}, {"duration": 4, "note": 60, "channel": 1, "velocity": 127}, {"duration": 4, "note": 64, "channel": 1, "velocity": 127}]}, {"max_duration": 4, "time": 12, "notes": [{"duration": 4, "note": 57, "channel": 1, "velocity": 127}, {"duration": 4, "note": 60, "channel": 1, "velocity": 127}, {"duration": 4, "note": 64, "channel": 1, "velocity": 127}]}, {"max_duration": 4, "time": 16, "notes": [{"duration": 4, "note": 57, "channel": 1, "velocity": 127}, {"duration": 4, "note": 60, "channel": 1, "velocity": 127}, {"duration": 4, "note": 64, "channel": 1, "velocity": 127}, {"duration": 1, "note": 69, "channel": 0, "velocity": 127}]}, {"max_duration": 1, "time": 17, "notes": [{"duration": 1, "note": 71, "channel": 0, "velocity": 127}]}, {"max_duration": 1, "time": 18, "notes": [{"duration": 1, "note": 72, "channel": 0, "velocity": 127}]}, {"max_duration": 1, "time": 19, "notes": [{"duration": 1, "note": 71, "channel": 0, "velocity": 127}]}, {"max_duration": 4, "time": 20, "notes": [{"duration": 4, "note": 57, "channel": 1, "velocity": 127}, {"duration": 4, "note": 60, "channel": 1, "velocity": 127}, {"duration": 4, "note": 64, "channel": 1, "velocity": 127}, {"duration": 2, "note": 69, "channel": 0, "velocity": 127}]}, {"max_duration": 4, "time": 24, "notes": [{"channel": 1, "note": 57, "velocity": 127, "duration": 4}, {"channel": 1, "note": 60, "velocity": 127, "duration": 4}, {"channel": 1, "note": 64, "velocity": 127, "duration": 4}, {"channel": 0, "note": 69, "velocity": 127, "duration": 1}]}, {"max_duration": 1, "time": 25, "notes": [{"channel": 0, "note": 71, "velocity": 127, "duration": 1}]}, {"max_duration": 1, "time": 26, "notes": [{"channel": 0, "note": 72, "velocity": 127, "duration": 1}]}, {"max_duration": 1, "time": 27, "notes": [{"channel": 0, "note": 74, "velocity": 127, "duration": 1}]}, {"max_duration": 4, "time": 28, "notes": [{"channel": 1, "note": 57, "velocity": 127, "duration": 4}, {"channel": 1, "note": 60, "velocity": 127, "duration": 4}, {"channel": 1, "note": 64, "velocity": 127, "duration": 4}, {"channel": 0, "note": 76, "velocity": 127, "duration": 2}]}, {"max_duration": 4, "time": 32, "notes": [{"channel": 1, "note": 57, "velocity": 47, "duration": 4}, {"channel": 1, "note": 62, "velocity": 72, "duration": 4}, {"channel": 1, "note": 65, "velocity": 68, "duration": 4}, {"channel": 0, "note": 74, "velocity": 69, "duration": 1}]}, {"max_duration": 1, "time": 33, "notes": [{"channel": 0, "note": 76, "velocity": 93, "duration": 1}]}, {"max_duration": 1, "time": 34, "notes": [{"channel": 0, "note": 77, "velocity": 108, "duration": 1}]}, {"max_duration": 1, "time": 35, "notes": [{"channel": 0, "note": 79, "velocity": 108, "duration": 1}]}, {"max_duration": 4, "time": 36, "notes": [{"channel": 1, "note": 57, "velocity": 113, "duration": 4}, {"channel": 1, "note": 62, "velocity": 96, "duration": 4}, {"channel": 1, "note": 65, "velocity": 96, "duration": 4}, {"channel": 0, "note": 81, "velocity": 121, "duration": 2}]}, {"max_duration": 4, "time": 40, "notes": [{"channel": 1, "note": 57, "velocity": 127, "duration": 4}, {"channel": 1, "note": 60, "velocity": 127, "duration": 4}, {"channel": 1, "note": 64, "velocity": 127, "duration": 4}, {"channel": 0, "note": 81, "velocity": 127, "duration": 1}]}, {"max_duration": 1, "time": 41, "notes": [{"channel": 0, "note": 83, "velocity": 127, "duration": 1}]}, {"max_duration": 1, "time": 42, "notes": [{"channel": 0, "note": 84, "velocity": 127, "duration": 1}]}, {"max_duration": 1, "time": 43, "notes": [{"channel": 0, "note": 86, "velocity": 127, "duration": 1}]}, {"max_duration": 4, "time": 44, "notes": [{"channel": 1, "note": 57, "velocity": 127, "duration": 4}, {"channel": 1, "note": 60, "velocity": 127, "duration": 4}, {"channel": 1, "note": 64, "velocity": 127, "duration": 4}, {"channel": 0, "note": 88, "velocity": 127, "duration": 2}]}, {"max_duration": 4, "time": 48, "notes": [{"channel": 1, "note": 55, "velocity": 127, "duration": 4}, {"channel": 1, "note": 60, "velocity": 127, "duration": 4}, {"channel": 1, "note": 64, "velocity": 127, "duration": 4}]}, {"max_duration": 2, "time": 50, "notes": [{"channel": 0, "note": 76, "velocity": 127, "duration": 2}]}, {"max_duration": 4, "time": 52, "notes": [{"channel": 1, "note": 55, "velocity": 127, "duration": 4}, {"channel": 1, "note": 60, "velocity": 127, "duration": 4}, {"channel": 1, "note": 64, "velocity": 127, "duration": 4}, {"channel": 0, "note": 76, "velocity": 127, "duration": 2}]}, {"max_duration": 2, "time": 54, "notes": [{"channel": 0, "note": 77, "velocity": 127, "duration": 2}]}, {"max_duration": 4, "time": 56, "notes": [{"channel": 1, "note": 55, "velocity": 127, "duration": 4}, {"channel": 1, "note": 59, "velocity": 127, "duration": 4}, {"channel": 1, "note": 65, "velocity": 127, "duration": 4}, {"channel": 0, "note": 72, "velocity": 127, "duration": 2}]}, {"max_duration": 4, "time": 60, "notes": [{"channel": 1, "note": 55, "velocity": 127, "duration": 4}, {"channel": 1, "note": 59, "velocity": 127, "duration": 4}, {"channel": 1, "note": 65, "velocity": 127, "duration": 4}, {"channel": 0, "note": 74, "velocity": 127, "duration": 4}]}, {"max_duration": 4, "time": 64, "notes": [{"channel": 1, "note": 55, "velocity": 127, "duration": 4}, {"channel": 1, "note": 59, "velocity": 127, "duration": 4}, {"channel": 1, "note": 65, "velocity": 127, "duration": 4}, {"channel": 0, "note": 74, "velocity": 127, "duration": 2}]}, {"max_duration": 2, "time": 66, "notes": [{"channel": 0, "note": 79, "velocity": 127, "duration": 2}]}, {"max_duration": 4, "time": 68, "notes": [{"channel": 1, "note": 55, "velocity": 127, "duration": 4}, {"channel": 1, "note": 59, "velocity": 127, "duration": 4}, {"channel": 1, "note": 65, "velocity": 127, "duration": 4}, {"channel": 0, "note": 74, "velocity": 127, "duration": 2}]}, {"max_duration": 2, "time": 70, "notes": [{"channel": 0, "note": 76, "velocity": 127, "duration": 2}]}, {"max_duration": 2, "time": 72, "notes": [{"channel": 1, "note": 60, "velocity": 127, "duration": 2}, {"channel": 1, "note": 64, "velocity": 127, "duration": 2}, {"channel": 0, "note": 72, "velocity": 127, "duration": 2}]}, {"max_duration": 4, "time": 76, "notes": [{"channel": 1, "note": 64, "velocity": 127, "duration": 4}, {"channel": 0, "note": 76, "velocity": 127, "duration": 4}]}], "channel": [{"gmbank": 0, "program": 0, "volume": 100}, {"gmbank": 0, "program": 1, "volume": 50}, {"gmbank": 0, "program": 2, "volume": 100}, {"gmbank": 0, "program": 3, "volume": 100}, {"gmbank": 0, "program": 4, "volume": 100}, {"gmbank": 0, "program": 5, "volume": 100}, {"gmbank": 0, "program": 6, "volume": 100}, {"gmbank": 0, "program": 7, "volume": 100}, {"gmbank": 0, "program": 8, "volume": 100}, {"gmbank": 0, "program": 9, "volume": 100}, {"gmbank": 0, "program": 10, "volume": 100}, {"gmbank": 0, "program": 11, "volume": 100}, {"gmbank": 0, "program": 12, "volume": 100}, {"gmbank": 0, "program": 13, "volume": 100}, {"gmbank": 0, "program": 14, "volume": 100}, {"gmbank": 0, "program": 15, "volume": 100}], "control": {"disp_time": [24, 39], "time_per_bar": 8, "time_cursor": 36, "disp_key": [[70, 87], [55, 72]], "program": [6, 1, 2, 3, 4, 5, 6, 7, 8, 9, 10, 11, 12, 13, 14, 15], "tempo": 90, "mini_note": 4, "key_cursor": [81, 57], "gmbank": [0, 0, 0, 0, 0, 0, 0, 0, 0, 0, 0, 0, 0, 0, 0, 0]}}